<?xml version="1.0" encoding="UTF-8" standalone="no"?>
<svg
   xmlns:dc="http://purl.org/dc/elements/1.1/"
   xmlns:cc="http://creativecommons.org/ns#"
   xmlns:rdf="http://www.w3.org/1999/02/22-rdf-syntax-ns#"
   xmlns:svg="http://www.w3.org/2000/svg"
   xmlns="http://www.w3.org/2000/svg"
   xmlns:sodipodi="http://sodipodi.sourceforge.net/DTD/sodipodi-0.dtd"
   xmlns:inkscape="http://www.inkscape.org/namespaces/inkscape"
   width="360"
   height="333"
   version="1.1"
   viewBox="0 0 337.49999 312.1865"
   xml:space="preserve"
   id="svg871"
   sodipodi:docname="godot.svg"
   inkscape:version="1.0.1 (3bc2e813f5, 2020-09-07)"><sodipodi:namedview
     pagecolor="#ffffff"
     bordercolor="#666666"
     borderopacity="1"
     objecttolerance="10"
     gridtolerance="10"
     guidetolerance="10"
     inkscape:pageopacity="0"
     inkscape:pageshadow="2"
     inkscape:window-width="1860"
     inkscape:window-height="1051"
     id="namedview873"
     showgrid="false"
     inkscape:zoom="1.1896186"
     inkscape:cx="472"
     inkscape:cy="166.52499"
     inkscape:window-x="60"
     inkscape:window-y="0"
     inkscape:window-maximized="1"
     inkscape:current-layer="g867" /><metadata
     id="metadata850"><rdf:RDF><cc:Work
         rdf:about=""><dc:format>image/svg+xml</dc:format><dc:type
           rdf:resource="http://purl.org/dc/dcmitype/StillImage" /><dc:title></dc:title></cc:Work></rdf:RDF></metadata><defs
     id="defs855"><clipPath
       id="a"><path
         d="M 0,595.276 H 841.89 V 0 H 0 Z"
         id="path852" /></clipPath></defs><g
     transform="matrix(1.25,0,0,-1.25,-131.75,559.11)"
     id="g869"><g
       clip-path="url(#a)"
       id="g867"><path
         d="m 348.13,279.27 c 0,0 -0.36759,2.2553 -0.58249,2.235 l -40.924,-3.9485 c -3.2563,-0.31443 -5.7853,-2.9113 -6.0138,-6.1744 l -1.1243,-16.114 -31.66,-2.2587 -2.1535,14.604 c -0.47957,3.2484 -3.3162,5.6971 -6.5997,5.6971 h -43.193 c -3.2823,0 -6.119,-2.4487 -6.5986,-5.6971 l -2.1547,-14.604 -31.66,2.2587 -1.1243,16.114 c -0.22848,3.2642 -2.7575,5.8611 -6.0138,6.1756 l -40.944,3.9474 c -0.21151,0.0204 -0.36646,-2.2372 -0.57797,-2.2372 l -0.0554,-8.8562 34.676,-5.5919 1.1356,-16.258 c 0.2296,-3.2914 2.8853,-5.9527 6.1789,-6.1891 l 43.603,-3.1104 c 0.16514,-0.0113 0.32801,-0.0181 0.49088,-0.0181 3.2767,0 6.1088,2.4499 6.5884,5.6982 l 2.2157,15.027 h 31.675 l 2.2157,-15.027 c 0.47843,-3.2473 3.314,-5.6971 6.5952,-5.6971 0.16061,0 0.32122,0.006 0.47844,0.017 l 43.609,3.1104 c 3.2925,0.23639 5.9493,2.8978 6.1789,6.1891 l 1.1344,16.258 34.661,5.6168 z"
         fill="#ffffff"
         id="path859" /><path
         d="m 214.7542,441.30546 c -11.5185,-2.56072 -22.91325,-6.12495 -33.59625,-11.502 0.24431,-9.43275 0.8541,-18.471 2.09032,-27.65175 -4.1487,-2.658 -8.50875,-4.93927 -12.384,-8.0505 -3.9372,-3.02895 -7.959,-5.92777 -11.52375,-9.47025 -7.12222,4.71083 -14.6595,9.138 -22.425,13.04625 -8.37075,-9.009 -16.1985,-18.73275 -22.59225,-29.613 4.81035,-7.782 9.8325,-15.07575 15.255,-21.9975 h 0.15088 v -66.77925 c 0.12215,-7.5e-4 0.24519,-0.007 0.36621,-0.0175 l 40.9395,-3.94627 c 2.14448,-0.20699 3.82485,-1.9335 3.9741,-4.08255 l 1.2627,-18.072 35.71125,-2.5488 2.45948,16.68 c 0.31894,2.16255 2.17485,3.76462 4.3623,3.76462 h 43.1925 c 2.18632,0 4.0419,-1.60207 4.3608,-3.76462 l 2.45947,-16.68 35.71275,2.5488 1.2612,18.072 c 0.15043,2.14897 1.82963,3.87442 3.9741,4.08255 l 40.923,3.94627 c 0.12102,0.0113 0.2426,0.0163 0.36474,0.0175 v 5.32913 l 0.0176,0.006 v 61.4445 h 0.15088 c 5.4234,6.92205 10.44225,14.21625 15.255,21.9975 -6.39158,10.881 -14.223,20.60475 -22.59375,29.613 -7.76325,-3.9078 -15.3045,-8.33475 -22.4265,-13.04625 -3.56393,3.54247 -7.578,6.44122 -11.52075,9.47025 -3.8739,3.11152 -8.24025,5.3928 -12.381,8.0505 1.23285,9.18075 1.84342,18.219 2.0889,27.65175 -10.68375,5.37705 -22.07775,8.9415 -33.60225,11.502 -4.6011,-7.73325 -8.80875,-16.10625 -12.47325,-24.29325 -4.3455,0.72614 -8.71125,0.99532 -13.08225,1.04737 v 0.006 c -0.0305,0 -0.059,-0.006 -0.085,-0.006 -0.0271,0 -0.0563,0.006 -0.0835,0.006 v -0.006 c -4.37947,-0.052 -8.742,-0.32122 -13.08825,-1.04737 -3.66232,8.18625 -7.86675,16.56 -12.47475,24.29325 z m -85.095,-170.85 c 0.017,-3.9564 0.0674,-8.2905 0.0674,-9.15375 0,-38.8785 49.32,-57.5655 110.595,-57.78075 h 0.15088 c 61.27575,0.21491 110.58,18.90225 110.58,57.78075 0,0.87885 0.0537,5.1951 0.0718,9.15375 l -36.798,-3.5493 -1.26855,-18.16875 c -0.15269,-2.1897 -1.89427,-3.93262 -4.08397,-4.08982 l -43.60875,-3.1113 c -0.10632,-0.008 -0.21268,-0.0117 -0.31787,-0.0117 -2.16712,0 -4.03635,1.59142 -4.35645,3.76754 l -2.5005,16.95825 h -35.58225 l -2.5005,-16.95825 c -0.33592,-2.28247 -2.376,-3.92437 -4.6743,-3.75584 l -43.60875,3.1113 c -2.1897,0.1572 -3.93127,1.90012 -4.08397,4.08982 l -1.26713,18.16875 -36.813,3.5493 z"
         fill="#478cbf"
         id="path861"
         style="stroke-width:0.75" /><path
         transform="matrix(0.75,0,0,-0.75,105.4,447.29)"
         d="m 98.723,138.25 c -18.16,0 -32.891,14.716 -32.891,32.879 0,18.175 14.73,32.898 32.891,32.898 18.169,0 32.896,-14.723 32.896,-32.898 0,-18.163 -14.727,-32.879 -32.896,-32.879 z m 154.76,0 c -18.172,0 -32.898,14.716 -32.898,32.879 0,18.175 14.726,32.898 32.898,32.898 18.159,0 32.887,-14.723 32.887,-32.898 0,-18.163 -14.728,-32.879 -32.887,-32.879 z m -77.387,19.24 c -5.8483,0 -10.588,4.3146 -10.588,9.623 v 30.283 c 0,5.3129 4.7396,9.623 10.588,9.623 5.8484,0 10.6,-4.3101 10.6,-9.623 v -30.283 c 0,-5.3084 -4.7513,-9.623 -10.6,-9.623 z"
         fill="#ffffff"
         id="path863" /><path
         transform="matrix(0.75,0,0,-0.75,105.4,447.29)"
         d="m 101.87,151.25 c -12.059,0 -21.834,9.7804 -21.834,21.836 0,12.0556 9.7754,21.826 21.834,21.826 12.065,0 21.836,-9.7706 21.836,-21.826 0,-12.0554 -9.7714,-21.836 -21.836,-21.836 z m 148.46,0 c -12.056,0 -21.824,9.7804 -21.824,21.836 0,12.0556 9.7687,21.826 21.824,21.826 12.068,0 21.834,-9.7706 21.834,-21.826 0,-12.0554 -9.7664,-21.836 -21.834,-21.836 z"
         fill="#414042"
         id="path865" /></g></g></svg>
