<?xml version="1.0" encoding="UTF-8" standalone="no"?>
<svg
   xmlns:dc="http://purl.org/dc/elements/1.1/"
   xmlns:cc="http://creativecommons.org/ns#"
   xmlns:rdf="http://www.w3.org/1999/02/22-rdf-syntax-ns#"
   xmlns:svg="http://www.w3.org/2000/svg"
   xmlns="http://www.w3.org/2000/svg"
   xmlns:sodipodi="http://sodipodi.sourceforge.net/DTD/sodipodi-0.dtd"
   xmlns:inkscape="http://www.inkscape.org/namespaces/inkscape"
   class="h-25"
   height="25"
   viewBox="0 0 25 25"
   version="1.1"
   id="svg26"
   sodipodi:docname="mongodb.svg"
   inkscape:version="1.0.1 (3bc2e813f5, 2020-09-07)"
   width="25">
  <metadata
     id="metadata32">
    <rdf:RDF>
      <cc:Work
         rdf:about="">
        <dc:format>image/svg+xml</dc:format>
        <dc:type
           rdf:resource="http://purl.org/dc/dcmitype/StillImage" />
        <dc:title></dc:title>
      </cc:Work>
    </rdf:RDF>
  </metadata>
  <defs
     id="defs30" />
  <sodipodi:namedview
     pagecolor="#ffffff"
     bordercolor="#666666"
     borderopacity="1"
     objecttolerance="10"
     gridtolerance="10"
     guidetolerance="10"
     inkscape:pageopacity="0"
     inkscape:pageshadow="2"
     inkscape:window-width="1860"
     inkscape:window-height="1051"
     id="namedview28"
     showgrid="false"
     inkscape:zoom="11.23"
     inkscape:cx="36.43859"
     inkscape:cy="12.5"
     inkscape:window-x="60"
     inkscape:window-y="0"
     inkscape:window-maximized="1"
     inkscape:current-layer="svg26"
     inkscape:document-rotation="0" />
  <g
     id="g24"
     transform="translate(6.5413353,-0.5000002)">
    <path
       d="M 11.165217,10.655332 C 9.897829,5.1512473 7.2544198,3.6846984 6.5845147,2.6526824 6.3038788,2.1909911 6.059454,1.720247 5.8512403,1.2313974 5.8150292,1.720247 5.7516598,2.0280412 5.3261795,2.3992048 4.475219,3.1415321 0.88126883,6.0293661 0.57347461,12.284831 0.2928387,18.114816 4.9278576,21.708766 5.543446,22.07993 c 0.4707441,0.226319 1.0410687,0 1.3217046,-0.208214 2.2360345,-1.511813 5.2868184,-5.531243 4.3000664,-11.216384"
       fill="#10aa50"
       id="path2"
       style="stroke-width:0.905277" />
    <path
       d="m 5.9508207,18.884301 c -0.117686,1.430338 -0.2082137,2.263193 -0.5160079,3.077943 0,0 0.2082137,1.366968 0.3440053,2.806359 H 6.2857733 C 6.4034593,23.754692 6.5845147,22.740782 6.8289396,21.744977 6.1861928,21.446236 5.9779791,20.142637 5.9508207,18.884301 Z"
       fill="#b8c4c2"
       id="path4"
       style="stroke-width:0.905277" />
    <path
       d="m 6.92852,21.826452 v 0 C 6.3038788,21.536763 6.1228234,20.1879 6.0956651,18.929565 6.2495622,16.847428 6.294826,14.76529 6.2314567,12.6741 6.1952456,11.587768 6.2495622,2.553102 5.9598735,1.2313974 c 0.199161,0.4435857 0.4254803,0.8781188 0.6699051,1.303599 0.6699051,1.0410687 3.286156,2.5076177 4.5354384,8.0388606 0.977699,5.694193 -2.0278208,9.722677 -4.236697,11.252595 z"
       fill="#12924f"
       id="path6"
       style="stroke-width:0.905277" />
  </g>
</svg>
